<svg xmlns="http://www.w3.org/2000/svg" width="85" height="85" viewBox="0 0 85 85"><defs><style>.a{fill:#e3e3e3;}.b{fill:#747474;}</style></defs><g transform="translate(-138 -120)"><circle class="a" cx="42.5" cy="42.5" r="42.5" transform="translate(138 120)"/><circle class="b" cx="3.867" cy="3.867" r="3.867" transform="translate(176.633 159.825)"/><path class="b" d="M10.458,2,8.247,4.417H4.417A2.424,2.424,0,0,0,2,6.833v14.5A2.424,2.424,0,0,0,4.417,23.75H23.75a2.424,2.424,0,0,0,2.417-2.417V6.833A2.424,2.424,0,0,0,23.75,4.417H19.92L17.708,2Zm3.625,18.125a6.042,6.042,0,1,1,6.042-6.042A6.044,6.044,0,0,1,14.083,20.125Z" transform="translate(166.417 149.609)"/></g></svg>